<svg xmlns="http://www.w3.org/2000/svg" viewBox="0 0 400 400" width="100%" height="100%">
<rect width="400" height="400" fill="#121212" rx="40"/>
<g transform="translate(30, 30)">
<rect x="0" y="0" width="160" height="160" rx="20" fill="#3498db"/>
<text x="80" y="115" font-family="'Helvetica Neue', sans-serif" font-size="100" font-weight="bold" fill="#ffffff" text-anchor="middle">駅</text>
<rect x="180" y="0" width="160" height="160" rx="20" fill="#3498db"/>
<text x="260" y="115" font-family="'Helvetica Neue', sans-serif" font-size="100" font-weight="bold" fill="#ffffff" text-anchor="middle">ロ</text>
<rect x="0" y="180" width="160" height="160" rx="20" fill="#3498db"/>
<text x="80" y="295" font-family="'Helvetica Neue', sans-serif" font-size="100" font-weight="bold" fill="#ffffff" text-anchor="middle">ケ</text>
<rect x="180" y="180" width="160" height="160" rx="20" fill="#2c3e50"/>
<path d="M 260 200 C 235 200 215 220 215 245 C 215 280 260 320 260 320 C 260 320 305 280 305 245 C 305 220 285 200 260 200 Z" fill="#ff4757"/>
<circle cx="260" cy="245" r="15" fill="#2c3e50"/>
</g>
</svg>
