<svg xmlns="http://www.w3.org/2000/svg" viewBox="0 0 800 800" width="100%" height="100%">
<rect width="800" height="800" fill="#121212" rx="40"/>
<g transform="translate(160, 160) scale(3)">
<circle cx="80" cy="80" r="70" fill="none" stroke="#333333" stroke-width="6"/>
<circle cx="80" cy="80" r="55" fill="none" stroke="#00ffff" stroke-width="8" stroke-dasharray="12 8"/>
<polygon points="80,0 90,20 70,20" fill="#ff4757"/>
<polygon points="80,160 90,140 70,140" fill="#dfe4ea"/>
<polygon points="160,80 140,70 140,90" fill="#dfe4ea"/>
<polygon points="0,80 20,70 20,90" fill="#dfe4ea"/>
<path d="M 45 110 Q 80 45 115 110 L 125 120 L 35 120 Z" fill="#ffffff"/>
<rect x="55" y="90" width="18" height="10" fill="#121212" rx="2"/>
<rect x="87" y="90" width="18" height="10" fill="#121212" rx="2"/>
<path d="M 40 125 L 120 125" stroke="#ff4757" stroke-width="4" stroke-linecap="round"/>
</g>
</svg>
