<svg xmlns="http://www.w3.org/2000/svg" viewBox="0 0 400 400" width="100%" height="100%">
<rect width="400" height="400" fill="#121212" rx="40"/>
<g transform="translate(30, 30)">
<rect x="0" y="0" width="160" height="160" rx="20" fill="#6aaa64"/>
<text x="80" y="115" font-family="'Helvetica Neue', sans-serif" font-size="100" font-weight="bold" fill="#ffffff" text-anchor="middle">駅</text>
<rect x="180" y="0" width="160" height="160" rx="20" fill="#c9b458"/>
<text x="260" y="115" font-family="'Helvetica Neue', sans-serif" font-size="100" font-weight="bold" fill="#ffffff" text-anchor="middle">ド</text>
<rect x="0" y="180" width="160" height="160" rx="20" fill="#6aaa64"/>
<text x="80" y="295" font-family="'Helvetica Neue', sans-serif" font-size="100" font-weight="bold" fill="#ffffff" text-anchor="middle">ル</text>
<rect x="180" y="180" width="160" height="160" rx="20" fill="#333333"/>
<g transform="translate(260, 260) scale(1.6) translate(-80, -105)">
<path d="M 45 110 Q 80 45 115 110 L 125 120 L 35 120 Z" fill="#ffffff"/>
<rect x="55" y="90" width="18" height="10" fill="#333333" rx="2"/>
<rect x="87" y="90" width="18" height="10" fill="#333333" rx="2"/>
<path d="M 40 125 L 120 125" stroke="#ff4757" stroke-width="4" stroke-linecap="round"/>
</g>
</g>
</svg>
