<svg version="1.1" id="Layer_1" xmlns="http://www.w3.org/2000/svg" xmlns:xlink="http://www.w3.org/1999/xlink" x="0px" y="0px"
	 width="100%" viewBox="0 0 1741 488" enable-background="new 0 0 1741 488" xml:space="preserve">
<path fill="#00B900" opacity="1.000000" stroke="none" 
	d="
M1228.000000,489.000000 
	C818.712402,489.000000 409.924866,489.000000 1.068646,489.000000 
	C1.068646,326.397339 1.068646,163.794617 1.068646,1.095958 
	C581.333313,1.095958 1161.666626,1.095958 1741.970703,1.095958 
	C1741.970703,163.742096 1741.970703,326.371063 1741.970703,489.000000 
	C1570.794312,489.000000 1399.647217,489.000000 1228.000000,489.000000 
M116.702240,256.002930 
	C122.698616,256.002594 128.708466,255.775879 134.683655,256.131409 
	C136.629974,256.247223 139.128220,257.389923 140.284561,258.898254 
	C152.934311,275.398224 165.421219,292.024414 177.800705,308.728729 
	C179.566483,311.111420 181.304901,312.128906 184.322525,312.078766 
	C195.812622,311.887909 207.307800,312.011719 218.801025,311.986633 
	C220.015411,311.983978 221.229340,311.774902 223.006409,311.609100 
	C205.956863,288.927277 189.312607,266.784637 172.569931,244.511063 
	C173.627182,243.615570 174.376343,242.976410 175.130371,242.343048 
	C195.534729,225.204605 203.532425,199.326401 195.926575,175.050186 
	C188.286743,150.665482 167.115204,133.467331 140.498734,131.759613 
	C122.913155,130.631287 105.207016,131.380508 87.554840,131.293030 
	C85.105324,131.280899 82.655693,131.291351 79.998840,131.291351 
	C79.998840,191.755219 79.998840,251.645294 79.998840,311.632660 
	C91.376503,311.632660 102.573349,311.632660 113.955566,311.632660 
	C113.955566,294.286499 113.912468,277.308380 114.032944,260.331421 
	C114.043190,258.888092 115.144958,257.452484 116.702240,256.002930 
M338.046997,253.500000 
	C338.046997,224.908951 338.046997,196.317917 338.046997,167.564606 
	C326.832855,167.564606 316.248840,167.564606 305.499542,167.564606 
	C305.244995,169.499939 305.023254,171.185913 304.742188,173.322861 
	C303.105286,172.455353 301.924347,171.893066 300.805206,171.227005 
	C277.781067,157.523941 249.453110,163.957993 231.559402,181.712372 
	C201.585754,211.452621 200.805557,265.375000 230.037689,295.988464 
	C245.700821,312.391754 264.930725,318.741394 287.221832,313.724396 
	C293.332977,312.348969 299.007904,309.035370 305.021851,306.553894 
	C305.123657,308.313049 305.217621,309.936340 305.319611,311.698425 
	C316.266846,311.698425 327.000519,311.698425 338.046997,311.698425 
	C338.046997,292.430939 338.046997,273.465485 338.046997,253.500000 
M422.233002,238.189377 
	C421.444855,237.168350 420.656708,236.147308 419.798645,235.035690 
	C438.367340,212.647766 456.819122,190.400818 475.986145,167.291504 
	C460.519745,167.291504 446.543213,167.196167 432.571808,167.420990 
	C430.958862,167.446960 428.947571,168.912094 427.844879,170.289520 
	C419.427521,180.804321 411.205444,191.475235 402.889374,202.071487 
	C399.180237,206.797653 395.394592,211.463791 391.643646,216.157181 
	C391.281799,216.022125 390.919922,215.887085 390.558075,215.752029 
	C390.558075,183.724136 390.558075,151.696243 390.558075,119.576721 
	C379.040283,119.576721 368.122559,119.576721 356.994446,119.576721 
	C356.994446,183.765457 356.994446,247.665314 356.994446,311.669891 
	C368.255096,311.669891 379.298584,311.669891 390.992401,311.669891 
	C390.992401,292.373901 390.992401,273.404694 390.992401,253.513321 
	C392.744354,255.463318 393.783783,256.526398 394.718536,257.674713 
	C408.373688,274.449768 422.067230,291.194214 435.608002,308.061218 
	C437.873993,310.883820 440.160034,312.198456 443.945374,312.109772 
	C456.101532,311.824951 468.268585,312.014313 480.431335,311.985565 
	C481.630951,311.982758 482.829987,311.738434 484.587830,311.544617 
	C463.641876,286.900513 443.172150,262.816742 422.233002,238.189377 
M789.726685,312.294037 
	C805.352356,307.063232 816.852478,296.606995 826.566162,283.318481 
	C817.922546,278.285889 809.461853,273.351044 800.988281,268.438324 
	C800.001770,267.866394 798.944153,267.417206 799.263550,267.574951 
	C792.053650,272.863770 786.026123,278.437805 779.006531,282.120880 
	C771.494995,286.062042 763.150757,285.104309 755.351685,281.506134 
	C743.585205,276.077484 733.776428,261.361572 734.425537,249.844391 
	C765.529907,249.844391 796.652222,249.844391 827.704712,249.844391 
	C831.773926,232.320206 828.303589,211.023544 818.828857,194.670120 
	C799.226990,160.837234 753.685791,153.408310 724.664673,179.473114 
	C709.093811,193.457733 701.872803,211.629791 700.461060,232.062820 
	C698.310242,263.191376 709.085693,288.640991 735.760925,305.956635 
	C752.220032,316.640686 770.296265,318.067139 789.726685,312.294037 
M1310.385498,305.912811 
	C1312.419800,304.061523 1314.454224,302.210236 1316.685669,300.179565 
	C1317.383911,301.778137 1317.866943,303.011108 1318.448730,304.195648 
	C1322.492065,312.428314 1330.863647,315.718658 1339.403687,312.452911 
	C1346.434814,309.764160 1349.652710,304.575378 1349.663452,295.394012 
	C1349.704468,260.586426 1349.684814,225.778732 1349.665405,190.971085 
	C1349.664551,189.481186 1349.530640,187.977783 1349.306152,186.503922 
	C1348.233154,179.459961 1343.244507,174.335770 1336.361450,173.132019 
	C1328.490479,171.755493 1322.541992,174.635208 1318.909912,181.586258 
	C1318.115967,183.105515 1317.336670,184.632401 1316.505981,186.242157 
	C1298.790039,169.389343 1279.194824,166.735977 1257.866455,178.139297 
	C1239.798950,187.799118 1228.402710,202.985153 1223.617920,222.587021 
	C1216.180908,253.054672 1222.767334,280.028046 1246.484985,301.562103 
	C1263.495972,317.007050 1291.509521,321.033722 1310.385498,305.912811 
M1488.092163,280.346313 
	C1500.627441,303.255157 1520.202515,314.578613 1546.060669,315.387085 
	C1564.512451,315.964050 1580.219360,309.536591 1593.141724,296.361267 
	C1597.561035,291.855377 1599.279175,286.370148 1597.521973,280.331879 
	C1595.747681,274.234802 1591.148926,270.792328 1585.032715,269.405243 
	C1578.763306,267.983429 1573.798462,270.028931 1569.336060,274.636658 
	C1559.749634,284.535370 1548.064697,286.787994 1535.485107,281.789307 
	C1522.913574,276.793793 1517.593018,266.233612 1515.791504,252.926895 
	C1521.429199,252.926895 1526.731567,252.926910 1532.033936,252.926895 
	C1552.184082,252.926788 1572.334229,252.942703 1592.484375,252.919952 
	C1602.932983,252.908142 1606.623291,249.015900 1606.175171,238.735672 
	C1605.598755,225.513229 1601.951416,213.240051 1595.054688,201.928574 
	C1570.110718,161.017593 1515.068359,160.644989 1490.825439,201.776230 
	C1476.074585,226.802994 1475.665527,253.194611 1488.092163,280.346313 
M371.765839,375.136078 
	C389.686188,373.621368 407.609039,372.135101 425.526398,370.585999 
	C462.190674,367.416077 498.850830,364.198029 535.515015,361.026917 
	C568.032166,358.214539 600.553650,355.452454 633.071106,352.643250 
	C670.233215,349.432800 707.393555,346.201599 744.553345,342.964783 
	C756.697754,341.906952 768.838196,340.803467 780.980408,339.720856 
	C780.967773,339.563232 780.955078,339.405579 780.942444,339.247925 
	C606.268250,339.247925 431.594025,339.247925 256.576477,339.247925 
	C257.016418,339.964111 257.185638,340.406891 257.491455,340.713348 
	C270.436707,353.685577 283.356750,366.683655 296.418488,379.537689 
	C297.506256,380.608154 299.607910,381.279297 301.158813,381.153534 
	C324.395203,379.268799 347.618256,377.218811 371.765839,375.136078 
M927.870972,293.499481 
	C927.870972,299.588379 927.870972,305.677277 927.870972,311.724579 
	C939.092651,311.724579 949.676453,311.724579 960.681763,311.724579 
	C960.681763,296.821350 960.773621,282.193146 960.657471,267.566589 
	C960.525208,250.914139 961.114441,234.189896 959.777100,217.627106 
	C957.165527,185.283997 930.506470,162.180466 898.422729,164.301300 
	C890.250488,164.841507 882.287537,168.548279 874.097778,170.836655 
	C874.046326,170.462753 873.855042,169.071320 873.649597,167.577179 
	C862.864319,167.577179 852.278381,167.577179 841.420715,167.577179 
	C841.420715,215.755966 841.420715,263.644775 841.420715,311.639587 
	C852.358337,311.639587 863.061462,311.639587 873.959351,311.639587 
	C873.959351,284.460785 873.870789,257.645844 874.041931,230.832596 
	C874.072388,226.062622 874.527771,221.097168 875.926941,216.574677 
	C879.004517,206.626831 885.876404,199.971436 896.261353,198.207428 
	C906.994324,196.384308 915.862610,200.104584 922.298096,209.191162 
	C926.749695,215.476608 927.855774,222.590073 927.863403,230.012238 
	C927.884949,250.841324 927.870911,271.670471 927.870972,293.499481 
M568.148254,228.499954 
	C568.057190,237.659515 568.487122,246.861679 567.742676,255.967819 
	C566.821777,267.230988 561.201538,275.895782 550.257385,279.907776 
	C539.982727,283.674286 530.501953,281.599792 522.713257,273.790161 
	C515.770569,266.828796 514.295044,257.859497 514.304749,248.464828 
	C514.330688,223.309799 514.313477,198.154709 514.313477,172.999649 
	C514.313477,171.224014 514.313477,169.448364 514.313477,167.679443 
	C503.089600,167.679443 492.540710,167.679443 481.885590,167.679443 
	C481.793365,168.878494 481.675659,169.696869 481.675385,170.515259 
	C481.665741,198.169174 481.539368,225.824142 481.771454,253.476120 
	C481.819824,259.240601 482.623138,265.141846 484.057526,270.728729 
	C494.839478,312.723663 538.598755,325.394623 565.928101,308.108765 
	C566.434875,307.788269 567.164062,307.819458 567.852112,307.673187 
	C568.066528,309.116058 568.254822,310.383087 568.436890,311.608551 
	C579.410950,311.608551 590.118591,311.608551 600.556885,311.608551 
	C600.556885,263.336700 600.556885,215.460098 600.556885,167.682678 
	C589.585999,167.682678 579.019714,167.682678 568.148254,167.682678 
	C568.148254,187.883072 568.148254,207.691498 568.148254,228.499954 
M1373.541992,230.141632 
	C1380.794189,252.597244 1387.964722,275.079712 1395.332764,297.497253 
	C1399.018799,308.711884 1408.560303,315.735809 1419.518555,315.786835 
	C1430.292725,315.837006 1440.037964,308.537750 1443.734619,297.463440 
	C1446.467285,289.277252 1449.008179,281.027100 1451.649170,272.810150 
	C1459.980469,246.888123 1468.444824,221.007950 1476.593750,195.028732 
	C1479.989136,184.203903 1475.094482,174.775467 1465.291016,171.949295 
	C1455.357300,169.085556 1446.303955,174.357605 1443.167114,185.115433 
	C1436.982544,206.325851 1430.960205,227.583511 1424.836548,248.811798 
	C1423.278809,254.212296 1421.592896,259.575867 1419.659180,265.970093 
	C1418.919189,264.014282 1418.574707,263.256104 1418.341675,262.465027 
	C1410.826294,236.965164 1403.351685,211.453125 1395.770264,185.972916 
	C1394.975830,183.303009 1393.967651,180.520309 1392.353394,178.303467 
	C1387.310547,171.377869 1378.486084,169.274216 1370.977905,172.821487 
	C1363.447510,176.379227 1359.267822,184.955521 1361.729004,193.308105 
	C1365.297974,205.420029 1369.389893,217.377884 1373.541992,230.141632 
M1094.520874,237.500305 
	C1094.520874,215.418106 1094.520874,193.335892 1094.520874,170.931503 
	C1096.793701,170.931503 1098.435791,170.931610 1100.078003,170.931503 
	C1109.743286,170.930862 1119.410522,171.047043 1129.073242,170.889099 
	C1135.720337,170.780487 1141.092163,168.032745 1143.899658,161.743851 
	C1146.420410,156.097275 1145.646484,150.633545 1141.559448,145.900528 
	C1137.656372,141.380524 1132.363770,140.275406 1126.675415,140.277893 
	C1094.346680,140.292038 1062.018066,140.272446 1029.689331,140.311768 
	C1027.538696,140.314392 1025.335571,140.478561 1023.247131,140.959610 
	C1012.167969,143.511505 1007.721741,155.795074 1014.564026,164.865280 
	C1017.957703,169.364136 1022.772095,170.894958 1028.165405,170.915604 
	C1039.272827,170.958130 1050.380493,170.928391 1061.868896,170.928391 
	C1061.868896,173.277924 1061.868896,175.074768 1061.868896,176.871628 
	C1061.868896,217.032532 1061.821411,257.193573 1061.954956,297.354065 
	C1061.966187,300.730316 1062.514893,304.439667 1063.992065,307.407959 
	C1067.277466,314.010010 1075.122070,316.988678 1082.266602,315.120636 
	C1089.933960,313.115845 1094.428955,307.456818 1094.479980,298.991425 
	C1094.601440,278.828369 1094.520142,258.664124 1094.520874,237.500305 
M691.051086,171.731415 
	C691.586670,168.313354 690.283630,167.089127 686.707214,167.207413 
	C678.942749,167.464218 671.164001,167.286606 662.823730,167.286606 
	C662.823730,155.063934 662.823730,143.349777 662.823730,131.637283 
	C651.681152,131.637283 641.116943,131.637283 630.109741,131.637283 
	C630.109741,143.564819 630.109741,155.150208 630.109741,167.395691 
	C624.153992,167.395691 618.619202,167.395691 613.120239,167.395691 
	C613.120239,179.168015 613.120239,190.268173 613.120239,201.999512 
	C618.894653,201.999512 624.439758,201.999512 630.146179,201.999512 
	C630.146179,223.110306 630.068787,243.587067 630.166443,264.063019 
	C630.280334,287.941467 643.154236,306.486633 664.878418,313.445862 
	C681.173096,318.665802 696.253418,314.129059 711.077942,306.581879 
	C703.738403,296.829590 696.602844,287.348297 689.534729,277.956665 
	C679.403625,282.960999 671.534912,282.324951 666.800781,275.063171 
	C664.347534,271.300049 663.223877,266.075256 663.125671,261.476074 
	C662.727600,242.831146 662.955627,224.172714 662.972107,205.519287 
	C662.973083,204.410110 663.143616,203.301117 663.278687,201.666245 
	C672.609436,201.666245 681.676514,201.666245 691.051086,201.666245 
	C691.051086,191.640030 691.051086,182.164276 691.051086,171.731415 
M1652.960571,174.500000 
	C1652.960205,163.670364 1653.009766,152.840393 1652.940918,142.011200 
	C1652.899414,135.465439 1649.936523,130.423874 1644.201782,127.355385 
	C1638.630249,124.374138 1632.858398,124.623657 1627.597656,128.143448 
	C1621.611084,132.148895 1620.117676,138.304581 1620.123169,145.132660 
	C1620.163574,195.448792 1620.135986,245.764954 1620.173462,296.081085 
	C1620.175171,298.394562 1620.348389,300.763336 1620.860596,303.010925 
	C1622.632812,310.788361 1629.985352,315.987976 1637.931274,315.279572 
	C1647.053223,314.466370 1652.926514,307.632782 1652.938599,297.458344 
	C1652.986816,256.805603 1652.959717,216.152786 1652.960571,174.500000 
M1221.063599,181.876022 
	C1218.841431,176.704773 1214.839966,173.221527 1209.370728,173.103607 
	C1204.544067,172.999527 1199.312256,173.705963 1194.924438,175.597397 
	C1188.883057,178.201614 1183.467651,182.258011 1177.691772,185.748108 
	C1177.540771,185.312012 1177.266357,184.543335 1177.007935,183.769318 
	C1174.297119,175.653610 1168.658447,171.887161 1160.829834,172.966019 
	C1153.802002,173.934525 1148.740112,179.792206 1148.719971,187.743240 
	C1148.625977,224.876831 1148.617188,262.011108 1148.793701,299.144073 
	C1148.807861,302.130676 1149.913696,305.433502 1151.457031,308.027069 
	C1155.087646,314.127869 1162.611328,316.722504 1169.268555,314.806702 
	C1176.472900,312.733398 1181.080200,306.766144 1181.121094,298.840302 
	C1181.222412,279.191498 1181.230469,259.541534 1181.140747,239.892670 
	C1181.052124,220.478134 1190.340332,206.893509 1209.016846,202.866226 
	C1219.443237,200.617966 1223.662109,192.847763 1221.063599,181.876022 
z"/>
<path fill="#FDFEFD" opacity="1.000000" stroke="none" 
	d="
M116.220947,256.008118 
	C115.144958,257.452484 114.043190,258.888092 114.032944,260.331421 
	C113.912468,277.308380 113.955566,294.286499 113.955566,311.632660 
	C102.573349,311.632660 91.376503,311.632660 79.998840,311.632660 
	C79.998840,251.645294 79.998840,191.755219 79.998840,131.291351 
	C82.655693,131.291351 85.105324,131.280899 87.554840,131.293030 
	C105.207016,131.380508 122.913155,130.631287 140.498734,131.759613 
	C167.115204,133.467331 188.286743,150.665482 195.926575,175.050186 
	C203.532425,199.326401 195.534729,225.204605 175.130371,242.343048 
	C174.376343,242.976410 173.627182,243.615570 172.569931,244.511063 
	C189.312607,266.784637 205.956863,288.927277 223.006409,311.609100 
	C221.229340,311.774902 220.015411,311.983978 218.801025,311.986633 
	C207.307800,312.011719 195.812622,311.887909 184.322525,312.078766 
	C181.304901,312.128906 179.566483,311.111420 177.800705,308.728729 
	C165.421219,292.024414 152.934311,275.398224 140.284561,258.898254 
	C139.128220,257.389923 136.629974,256.247223 134.683655,256.131409 
	C128.708466,255.775879 122.698616,256.002594 116.220947,256.008118 
M113.948662,185.500320 
	C113.948662,197.421661 113.948662,209.343002 113.948662,221.100891 
	C123.391373,221.100891 132.220749,221.687469 140.939072,220.953979 
	C152.102158,220.014801 161.995880,209.992477 163.895416,199.007141 
	C165.979340,186.955475 160.295013,174.873215 150.098083,169.365356 
	C138.647308,163.180237 126.369179,166.688080 113.948662,165.564804 
	C113.948662,172.262466 113.948662,178.381470 113.948662,185.500320 
z"/>
<path fill="#FDFEFD" opacity="1.000000" stroke="none" 
	d="
M338.046997,254.000000 
	C338.046997,273.465485 338.046997,292.430939 338.046997,311.698425 
	C327.000519,311.698425 316.266846,311.698425 305.319611,311.698425 
	C305.217621,309.936340 305.123657,308.313049 305.021851,306.553894 
	C299.007904,309.035370 293.332977,312.348969 287.221832,313.724396 
	C264.930725,318.741394 245.700821,312.391754 230.037689,295.988464 
	C200.805557,265.375000 201.585754,211.452621 231.559402,181.712372 
	C249.453110,163.957993 277.781067,157.523941 300.805206,171.227005 
	C301.924347,171.893066 303.105286,172.455353 304.742188,173.322861 
	C305.023254,171.185913 305.244995,169.499939 305.499542,167.564606 
	C316.248840,167.564606 326.832855,167.564606 338.046997,167.564606 
	C338.046997,196.317917 338.046997,224.908951 338.046997,254.000000 
M301.698639,260.103333 
	C307.806671,243.603485 307.494141,227.512589 297.928192,212.351364 
	C287.401917,195.668076 266.045105,194.161957 253.083237,208.933731 
	C240.773987,222.961746 238.992126,248.894073 249.070969,265.035370 
	C253.854584,272.696411 260.066193,278.471222 269.162231,279.987946 
	C283.482666,282.375885 294.755768,275.459564 301.698639,260.103333 
z"/>
<path fill="#FCFEFC" opacity="1.000000" stroke="none" 
	d="
M422.467712,238.461151 
	C443.172150,262.816742 463.641876,286.900513 484.587830,311.544617 
	C482.829987,311.738434 481.630951,311.982758 480.431335,311.985565 
	C468.268585,312.014313 456.101532,311.824951 443.945374,312.109772 
	C440.160034,312.198456 437.873993,310.883820 435.608002,308.061218 
	C422.067230,291.194214 408.373688,274.449768 394.718536,257.674713 
	C393.783783,256.526398 392.744354,255.463318 390.992401,253.513321 
	C390.992401,273.404694 390.992401,292.373901 390.992401,311.669891 
	C379.298584,311.669891 368.255096,311.669891 356.994446,311.669891 
	C356.994446,247.665314 356.994446,183.765457 356.994446,119.576721 
	C368.122559,119.576721 379.040283,119.576721 390.558075,119.576721 
	C390.558075,151.696243 390.558075,183.724136 390.558075,215.752029 
	C390.919922,215.887085 391.281799,216.022125 391.643646,216.157181 
	C395.394592,211.463791 399.180237,206.797653 402.889374,202.071487 
	C411.205444,191.475235 419.427521,180.804321 427.844879,170.289520 
	C428.947571,168.912094 430.958862,167.446960 432.571808,167.420990 
	C446.543213,167.196167 460.519745,167.291504 475.986145,167.291504 
	C456.819122,190.400818 438.367340,212.647766 419.798645,235.035690 
	C420.656708,236.147308 421.444855,237.168350 422.467712,238.461151 
z"/>
<path fill="#FDFEFD" opacity="1.000000" stroke="none" 
	d="
M789.367737,312.472229 
	C770.296265,318.067139 752.220032,316.640686 735.760925,305.956635 
	C709.085693,288.640991 698.310242,263.191376 700.461060,232.062820 
	C701.872803,211.629791 709.093811,193.457733 724.664673,179.473114 
	C753.685791,153.408310 799.226990,160.837234 818.828857,194.670120 
	C828.303589,211.023544 831.773926,232.320206 827.704712,249.844391 
	C796.652222,249.844391 765.529907,249.844391 734.425537,249.844391 
	C733.776428,261.361572 743.585205,276.077484 755.351685,281.506134 
	C763.150757,285.104309 771.494995,286.062042 779.006531,282.120880 
	C786.026123,278.437805 792.053650,272.863770 799.263550,267.574951 
	C798.944153,267.417206 800.001770,267.866394 800.988281,268.438324 
	C809.461853,273.351044 817.922546,278.285889 826.566162,283.318481 
	C816.852478,296.606995 805.352356,307.063232 789.367737,312.472229 
M772.324463,195.958542 
	C755.111450,191.547302 738.234375,202.803177 735.269958,220.807983 
	C754.699463,220.807983 774.103516,220.807983 793.842529,220.807983 
	C791.245178,208.678162 785.140015,199.928787 772.324463,195.958542 
z"/>
<path fill="#FCFEFC" opacity="1.000000" stroke="none" 
	d="
M1310.121582,306.151367 
	C1291.509521,321.033722 1263.495972,317.007050 1246.484985,301.562103 
	C1222.767334,280.028046 1216.180908,253.054672 1223.617920,222.587021 
	C1228.402710,202.985153 1239.798950,187.799118 1257.866455,178.139297 
	C1279.194824,166.735977 1298.790039,169.389343 1316.505981,186.242157 
	C1317.336670,184.632401 1318.115967,183.105515 1318.909912,181.586258 
	C1322.541992,174.635208 1328.490479,171.755493 1336.361450,173.132019 
	C1343.244507,174.335770 1348.233154,179.459961 1349.306152,186.503922 
	C1349.530640,187.977783 1349.664551,189.481186 1349.665405,190.971085 
	C1349.684814,225.778732 1349.704468,260.586426 1349.663452,295.394012 
	C1349.652710,304.575378 1346.434814,309.764160 1339.403687,312.452911 
	C1330.863647,315.718658 1322.492065,312.428314 1318.448730,304.195648 
	C1317.866943,303.011108 1317.383911,301.778137 1316.685669,300.179565 
	C1314.454224,302.210236 1312.419800,304.061523 1310.121582,306.151367 
M1278.008911,283.875702 
	C1291.678589,287.571716 1304.848267,280.533997 1310.900024,268.364319 
	C1319.035278,252.004990 1319.497925,235.005707 1311.010010,218.923309 
	C1299.192627,196.532379 1273.555786,196.086731 1260.325073,217.607742 
	C1252.478271,230.371368 1251.652344,244.356491 1255.731567,258.481628 
	C1259.039917,269.937347 1265.430420,279.199005 1278.008911,283.875702 
z"/>
<path fill="#FDFEFD" opacity="1.000000" stroke="none" 
	d="
M1487.921875,280.014404 
	C1475.665527,253.194611 1476.074585,226.802994 1490.825439,201.776230 
	C1515.068359,160.644989 1570.110718,161.017593 1595.054688,201.928574 
	C1601.951416,213.240051 1605.598755,225.513229 1606.175171,238.735672 
	C1606.623291,249.015900 1602.932983,252.908142 1592.484375,252.919952 
	C1572.334229,252.942703 1552.184082,252.926788 1532.033936,252.926895 
	C1526.731567,252.926910 1521.429199,252.926895 1515.791504,252.926895 
	C1517.593018,266.233612 1522.913574,276.793793 1535.485107,281.789307 
	C1548.064697,286.787994 1559.749634,284.535370 1569.336060,274.636658 
	C1573.798462,270.028931 1578.763306,267.983429 1585.032715,269.405243 
	C1591.148926,270.792328 1595.747681,274.234802 1597.521973,280.331879 
	C1599.279175,286.370148 1597.561035,291.855377 1593.141724,296.361267 
	C1580.219360,309.536591 1564.512451,315.964050 1546.060669,315.387085 
	C1520.202515,314.578613 1500.627441,303.255157 1487.921875,280.014404 
M1569.027588,222.951660 
	C1568.631592,221.511383 1568.312744,220.044540 1567.827393,218.635040 
	C1563.410156,205.806961 1552.733521,198.665726 1540.491333,200.316711 
	C1527.895264,202.015411 1517.934692,212.410599 1517.045898,224.997330 
	C1533.667847,224.997330 1550.274902,225.012894 1566.881348,224.947510 
	C1567.643555,224.944504 1568.402954,224.214325 1569.027588,222.951660 
z"/>
<path fill="#FCFEFC" opacity="1.000000" stroke="none" 
	d="
M371.305115,375.171906 
	C347.618256,377.218811 324.395203,379.268799 301.158813,381.153534 
	C299.607910,381.279297 297.506256,380.608154 296.418488,379.537689 
	C283.356750,366.683655 270.436707,353.685577 257.491455,340.713348 
	C257.185638,340.406891 257.016418,339.964111 256.576477,339.247925 
	C431.594025,339.247925 606.268250,339.247925 780.942444,339.247925 
	C780.955078,339.405579 780.967773,339.563232 780.980408,339.720856 
	C768.838196,340.803467 756.697754,341.906952 744.553345,342.964783 
	C707.393555,346.201599 670.233215,349.432800 633.071106,352.643250 
	C600.553650,355.452454 568.032166,358.214539 535.515015,361.026917 
	C498.850830,364.198029 462.190674,367.416077 425.526398,370.585999 
	C407.609039,372.135101 389.686188,373.621368 371.305115,375.171906 
z"/>
<path fill="#FCFEFC" opacity="1.000000" stroke="none" 
	d="
M927.870972,292.999512 
	C927.870911,271.670471 927.884949,250.841324 927.863403,230.012238 
	C927.855774,222.590073 926.749695,215.476608 922.298096,209.191162 
	C915.862610,200.104584 906.994324,196.384308 896.261353,198.207428 
	C885.876404,199.971436 879.004517,206.626831 875.926941,216.574677 
	C874.527771,221.097168 874.072388,226.062622 874.041931,230.832596 
	C873.870789,257.645844 873.959351,284.460785 873.959351,311.639587 
	C863.061462,311.639587 852.358337,311.639587 841.420715,311.639587 
	C841.420715,263.644775 841.420715,215.755966 841.420715,167.577179 
	C852.278381,167.577179 862.864319,167.577179 873.649597,167.577179 
	C873.855042,169.071320 874.046326,170.462753 874.097778,170.836655 
	C882.287537,168.548279 890.250488,164.841507 898.422729,164.301300 
	C930.506470,162.180466 957.165527,185.283997 959.777100,217.627106 
	C961.114441,234.189896 960.525208,250.914139 960.657471,267.566589 
	C960.773621,282.193146 960.681763,296.821350 960.681763,311.724579 
	C949.676453,311.724579 939.092651,311.724579 927.870972,311.724579 
	C927.870972,305.677277 927.870972,299.588379 927.870972,292.999512 
z"/>
<path fill="#FCFEFC" opacity="1.000000" stroke="none" 
	d="
M568.148254,227.999939 
	C568.148254,207.691498 568.148254,187.883072 568.148254,167.682678 
	C579.019714,167.682678 589.585999,167.682678 600.556885,167.682678 
	C600.556885,215.460098 600.556885,263.336700 600.556885,311.608551 
	C590.118591,311.608551 579.410950,311.608551 568.436890,311.608551 
	C568.254822,310.383087 568.066528,309.116058 567.852112,307.673187 
	C567.164062,307.819458 566.434875,307.788269 565.928101,308.108765 
	C538.598755,325.394623 494.839478,312.723663 484.057526,270.728729 
	C482.623138,265.141846 481.819824,259.240601 481.771454,253.476120 
	C481.539368,225.824142 481.665741,198.169174 481.675385,170.515259 
	C481.675659,169.696869 481.793365,168.878494 481.885590,167.679443 
	C492.540710,167.679443 503.089600,167.679443 514.313477,167.679443 
	C514.313477,169.448364 514.313477,171.224014 514.313477,172.999649 
	C514.313477,198.154709 514.330688,223.309799 514.304749,248.464828 
	C514.295044,257.859497 515.770569,266.828796 522.713257,273.790161 
	C530.501953,281.599792 539.982727,283.674286 550.257385,279.907776 
	C561.201538,275.895782 566.821777,267.230988 567.742676,255.967819 
	C568.487122,246.861679 568.057190,237.659515 568.148254,227.999939 
z"/>
<path fill="#FCFEFC" opacity="1.000000" stroke="none" 
	d="
M1373.400391,229.771545 
	C1369.389893,217.377884 1365.297974,205.420029 1361.729004,193.308105 
	C1359.267822,184.955521 1363.447510,176.379227 1370.977905,172.821487 
	C1378.486084,169.274216 1387.310547,171.377869 1392.353394,178.303467 
	C1393.967651,180.520309 1394.975830,183.303009 1395.770264,185.972916 
	C1403.351685,211.453125 1410.826294,236.965164 1418.341675,262.465027 
	C1418.574707,263.256104 1418.919189,264.014282 1419.659180,265.970093 
	C1421.592896,259.575867 1423.278809,254.212296 1424.836548,248.811798 
	C1430.960205,227.583511 1436.982544,206.325851 1443.167114,185.115433 
	C1446.303955,174.357605 1455.357300,169.085556 1465.291016,171.949295 
	C1475.094482,174.775467 1479.989136,184.203903 1476.593750,195.028732 
	C1468.444824,221.007950 1459.980469,246.888123 1451.649170,272.810150 
	C1449.008179,281.027100 1446.467285,289.277252 1443.734619,297.463440 
	C1440.037964,308.537750 1430.292725,315.837006 1419.518555,315.786835 
	C1408.560303,315.735809 1399.018799,308.711884 1395.332764,297.497253 
	C1387.964722,275.079712 1380.794189,252.597244 1373.400391,229.771545 
z"/>
<path fill="#FBFEFB" opacity="1.000000" stroke="none" 
	d="
M1094.520752,238.000320 
	C1094.520142,258.664124 1094.601440,278.828369 1094.479980,298.991425 
	C1094.428955,307.456818 1089.933960,313.115845 1082.266602,315.120636 
	C1075.122070,316.988678 1067.277466,314.010010 1063.992065,307.407959 
	C1062.514893,304.439667 1061.966187,300.730316 1061.954956,297.354065 
	C1061.821411,257.193573 1061.868896,217.032532 1061.868896,176.871628 
	C1061.868896,175.074768 1061.868896,173.277924 1061.868896,170.928391 
	C1050.380493,170.928391 1039.272827,170.958130 1028.165405,170.915604 
	C1022.772095,170.894958 1017.957703,169.364136 1014.564026,164.865280 
	C1007.721741,155.795074 1012.167969,143.511505 1023.247131,140.959610 
	C1025.335571,140.478561 1027.538696,140.314392 1029.689331,140.311768 
	C1062.018066,140.272446 1094.346680,140.292038 1126.675415,140.277893 
	C1132.363770,140.275406 1137.656372,141.380524 1141.559448,145.900528 
	C1145.646484,150.633545 1146.420410,156.097275 1143.899658,161.743851 
	C1141.092163,168.032745 1135.720337,170.780487 1129.073242,170.889099 
	C1119.410522,171.047043 1109.743286,170.930862 1100.078003,170.931503 
	C1098.435791,170.931610 1096.793701,170.931503 1094.520874,170.931503 
	C1094.520874,193.335892 1094.520874,215.418106 1094.520752,238.000320 
z"/>
<path fill="#FBFEFB" opacity="1.000000" stroke="none" 
	d="
M691.051086,172.209961 
	C691.051086,182.164276 691.051086,191.640030 691.051086,201.666245 
	C681.676514,201.666245 672.609436,201.666245 663.278687,201.666245 
	C663.143616,203.301117 662.973083,204.410110 662.972107,205.519287 
	C662.955627,224.172714 662.727600,242.831146 663.125671,261.476074 
	C663.223877,266.075256 664.347534,271.300049 666.800781,275.063171 
	C671.534912,282.324951 679.403625,282.960999 689.534729,277.956665 
	C696.602844,287.348297 703.738403,296.829590 711.077942,306.581879 
	C696.253418,314.129059 681.173096,318.665802 664.878418,313.445862 
	C643.154236,306.486633 630.280334,287.941467 630.166443,264.063019 
	C630.068787,243.587067 630.146179,223.110306 630.146179,201.999512 
	C624.439758,201.999512 618.894653,201.999512 613.120239,201.999512 
	C613.120239,190.268173 613.120239,179.168015 613.120239,167.395691 
	C618.619202,167.395691 624.153992,167.395691 630.109741,167.395691 
	C630.109741,155.150208 630.109741,143.564819 630.109741,131.637283 
	C641.116943,131.637283 651.681152,131.637283 662.823730,131.637283 
	C662.823730,143.349777 662.823730,155.063934 662.823730,167.286606 
	C671.164001,167.286606 678.942749,167.464218 686.707214,167.207413 
	C690.283630,167.089127 691.586670,168.313354 691.051086,172.209961 
z"/>
<path fill="#FBFEFB" opacity="1.000000" stroke="none" 
	d="
M1652.960571,175.000000 
	C1652.959717,216.152786 1652.986816,256.805603 1652.938599,297.458344 
	C1652.926514,307.632782 1647.053223,314.466370 1637.931274,315.279572 
	C1629.985352,315.987976 1622.632812,310.788361 1620.860596,303.010925 
	C1620.348389,300.763336 1620.175171,298.394562 1620.173462,296.081085 
	C1620.135986,245.764954 1620.163574,195.448792 1620.123169,145.132660 
	C1620.117676,138.304581 1621.611084,132.148895 1627.597656,128.143448 
	C1632.858398,124.623657 1638.630249,124.374138 1644.201782,127.355385 
	C1649.936523,130.423874 1652.899414,135.465439 1652.940918,142.011200 
	C1653.009766,152.840393 1652.960205,163.670364 1652.960571,175.000000 
z"/>
<path fill="#FDFEFD" opacity="1.000000" stroke="none" 
	d="
M1221.221191,182.245483 
	C1223.662109,192.847763 1219.443237,200.617966 1209.016846,202.866226 
	C1190.340332,206.893509 1181.052124,220.478134 1181.140747,239.892670 
	C1181.230469,259.541534 1181.222412,279.191498 1181.121094,298.840302 
	C1181.080200,306.766144 1176.472900,312.733398 1169.268555,314.806702 
	C1162.611328,316.722504 1155.087646,314.127869 1151.457031,308.027069 
	C1149.913696,305.433502 1148.807861,302.130676 1148.793701,299.144073 
	C1148.617188,262.011108 1148.625977,224.876831 1148.719971,187.743240 
	C1148.740112,179.792206 1153.802002,173.934525 1160.829834,172.966019 
	C1168.658447,171.887161 1174.297119,175.653610 1177.007935,183.769318 
	C1177.266357,184.543335 1177.540771,185.312012 1177.691772,185.748108 
	C1183.467651,182.258011 1188.883057,178.201614 1194.924438,175.597397 
	C1199.312256,173.705963 1204.544067,172.999527 1209.370728,173.103607 
	C1214.839966,173.221527 1218.841431,176.704773 1221.221191,182.245483 
z"/>
<path fill="#03BA03" opacity="1.000000" stroke="none" 
	d="
M113.948662,185.000397 
	C113.948662,178.381470 113.948662,172.262466 113.948662,165.564804 
	C126.369179,166.688080 138.647308,163.180237 150.098083,169.365356 
	C160.295013,174.873215 165.979340,186.955475 163.895416,199.007141 
	C161.995880,209.992477 152.102158,220.014801 140.939072,220.953979 
	C132.220749,221.687469 123.391373,221.100891 113.948662,221.100891 
	C113.948662,209.343002 113.948662,197.421661 113.948662,185.000397 
z"/>
<path fill="#02BA02" opacity="1.000000" stroke="none" 
	d="
M301.521545,260.441833 
	C294.755768,275.459564 283.482666,282.375885 269.162231,279.987946 
	C260.066193,278.471222 253.854584,272.696411 249.070969,265.035370 
	C238.992126,248.894073 240.773987,222.961746 253.083237,208.933731 
	C266.045105,194.161957 287.401917,195.668076 297.928192,212.351364 
	C307.494141,227.512589 307.806671,243.603485 301.521545,260.441833 
z"/>
<path fill="#03BA03" opacity="1.000000" stroke="none" 
	d="
M772.733643,196.012878 
	C785.140015,199.928787 791.245178,208.678162 793.842529,220.807983 
	C774.103516,220.807983 754.699463,220.807983 735.269958,220.807983 
	C738.234375,202.803177 755.111450,191.547302 772.733643,196.012878 
z"/>
<path fill="#02BA02" opacity="1.000000" stroke="none" 
	d="
M1277.648438,283.696960 
	C1265.430420,279.199005 1259.039917,269.937347 1255.731567,258.481628 
	C1251.652344,244.356491 1252.478271,230.371368 1260.325073,217.607742 
	C1273.555786,196.086731 1299.192627,196.532379 1311.010010,218.923309 
	C1319.497925,235.005707 1319.035278,252.004990 1310.900024,268.364319 
	C1304.848267,280.533997 1291.678589,287.571716 1277.648438,283.696960 
z"/>
<path fill="#03BA03" opacity="1.000000" stroke="none" 
	d="
M1569.095581,223.387238 
	C1568.402954,224.214325 1567.643555,224.944504 1566.881348,224.947510 
	C1550.274902,225.012894 1533.667847,224.997330 1517.045898,224.997330 
	C1517.934692,212.410599 1527.895264,202.015411 1540.491333,200.316711 
	C1552.733521,198.665726 1563.410156,205.806961 1567.827393,218.635040 
	C1568.312744,220.044540 1568.631592,221.511383 1569.095581,223.387238 
z"/>
</svg>
